<?xml version="1.0" encoding="UTF-8" standalone="no"?>
<!-- Generator: Adobe Illustrator 16.0.0, SVG Export Plug-In . SVG Version: 6.00 Build 0)  -->

<svg
   version="1.1"
   id="Epsilon-x_in_a_regular_hexagon"
   x="0px"
   y="0px"
   width="1154.663px"
   height="1000px"
   viewBox="0 0 1154.663 1000"
   enable-background="new 0 0 1154.663 1000"
   xml:space="preserve"
   sodipodi:docname="atex.svg"
   inkscape:version="1.2.2 (b0a84865, 2022-12-01)"
   xmlns:inkscape="http://www.inkscape.org/namespaces/inkscape"
   xmlns:sodipodi="http://sodipodi.sourceforge.net/DTD/sodipodi-0.dtd"
   xmlns="http://www.w3.org/2000/svg"
   xmlns:svg="http://www.w3.org/2000/svg"><defs
   id="defs1912" /><sodipodi:namedview
   id="namedview1910"
   pagecolor="#ffffff"
   bordercolor="#000000"
   borderopacity="0.25"
   inkscape:showpageshadow="2"
   inkscape:pageopacity="0"
   inkscape:pagecheckerboard="0"
   inkscape:deskcolor="#d1d1d1"
   showgrid="false"
   inkscape:zoom="0.3337544"
   inkscape:cx="220.22182"
   inkscape:cy="434.4512"
   inkscape:window-width="1450"
   inkscape:window-height="914"
   inkscape:window-x="582"
   inkscape:window-y="412"
   inkscape:window-maximized="0"
   inkscape:current-layer="Epsilon-x_in_a_regular_hexagon" />
<path
   id="path1903-0"
   d="M -5.2806641e-4,500.00005 288.66147,1000 h 577.398 L 1154.6635,500.00005 866.05947,-5e-5 h -577.398 z"
   sodipodi:nodetypes="ccccccc"
   style="fill:#fbca0f;fill-opacity:1" /><path
   d="M323.311,59.932h508.042L1085.366,500L831.353,940.068H323.311L69.224,500L323.311,59.932z M0,500l288.662,500H866.06  l288.604-500L866.06,0H288.662L0,500z"
   id="path1903" />
<path
   d="M721.694,564.355c17.51-58.711,71.475-98.936,132.793-98.936v69.16c-24.834,0-47.646,13.281-60.068,34.707l-40.01,69.297  l40.01,69.287c12.422,21.455,35.234,34.58,60.068,34.58v69.287c-61.318,0-115.283-40.225-132.793-98.936  c-17.51,58.711-71.475,98.936-132.798,98.936v-69.287c24.712,0,47.588-13.125,59.946-34.58l40.01-69.287l-40.01-69.297  c-12.358-21.426-35.234-34.707-59.946-34.707v-69.16C650.22,465.42,704.185,505.645,721.694,564.355z"
   id="path1905" />
<path
   d="M300.171,500c-6.528-4.912-12.749-10.342-18.55-16.025c-67.607-67.744-67.607-177.363,0-244.961  c67.671-67.754,177.358-67.754,244.971,0l-48.97,48.955c-40.576-40.645-106.392-40.645-146.968,0  c-40.581,40.508-40.581,106.396,0,146.895c19.492,19.512,45.918,30.557,73.452,30.557h69.287v69.16h-69.287  c-57.363,0-103.936,46.572-103.936,104.004c0,57.422,46.572,103.867,103.936,103.867c27.593,0,54.023-10.918,73.516-30.4  l48.97,48.955c-5.806,5.811-11.958,11.24-18.555,16.152c-76.543,57.422-185.088,41.895-242.51-34.707  C208.164,665.977,223.687,557.422,300.171,500"
   id="path1907" />
</svg>
