<?xml version="1.0" encoding="UTF-8" standalone="no"?>
<!-- Created with Inkscape (http://www.inkscape.org/) -->

<svg
   width="16"
   height="16"
   viewBox="0 0 4.2333332 4.2333333"
   version="1.1"
   id="svg14322"
   xml:space="preserve"
   inkscape:version="1.2.2 (b0a84865, 2022-12-01)"
   sodipodi:docname="airbus_logo.svg"
   xmlns:inkscape="http://www.inkscape.org/namespaces/inkscape"
   xmlns:sodipodi="http://sodipodi.sourceforge.net/DTD/sodipodi-0.dtd"
   xmlns="http://www.w3.org/2000/svg"
   xmlns:svg="http://www.w3.org/2000/svg"><sodipodi:namedview
     id="namedview14324"
     pagecolor="#ffffff"
     bordercolor="#000000"
     borderopacity="0.25"
     inkscape:showpageshadow="2"
     inkscape:pageopacity="0.0"
     inkscape:pagecheckerboard="0"
     inkscape:deskcolor="#d1d1d1"
     inkscape:document-units="mm"
     showgrid="false"
     inkscape:zoom="14.888875"
     inkscape:cx="-1.10821"
     inkscape:cy="17.630614"
     inkscape:window-width="1772"
     inkscape:window-height="1007"
     inkscape:window-x="0"
     inkscape:window-y="25"
     inkscape:window-maximized="0"
     inkscape:current-layer="layer1" /><defs
     id="defs14319"><style
       id="style14806">.cls-1{fill:currentColor;}</style></defs><g
     inkscape:label="Layer 1"
     inkscape:groupmode="layer"
     id="layer1"><g
       id="g14820"
       transform="matrix(0.00647318,0,0,0.00647318,-1.1208955,-1.1198608)"><path
         class="cls-1"
         d="m 271.48,499.88 h -45.56 a 149.84,149.84 0 0 0 299.56,-0.07 h 50.8 a 177.77,177.77 0 0 1 -318.92,108 c 59.68,93.34 183.72,120.63 277.06,61 a 200.61,200.61 0 0 0 92.54,-169 h 50.8 C 677.76,626 575.53,728.32 449.34,728.36 A 228.49,228.49 0 0 1 266.68,637.22 c 75.88,116.25 231.63,149 347.88,73.09 a 251.33,251.33 0 0 0 114,-210.5 H 774 a 149.83,149.83 0 0 0 -299.55,0 h -50.8 A 177.76,177.76 0 0 1 742.56,391.91 C 683,298.55 559,271.18 465.6,330.79 A 200.56,200.56 0 0 0 373,499.88 H 322.2 C 322.2,373.72 424.44,271.42 550.61,271.4 A 228.43,228.43 0 0 1 733.2,362.51 C 657.29,246.28 501.53,213.6 385.31,289.51 A 251.36,251.36 0 0 0 271.4,499.88"
         id="path14810" /><path
         class="cls-1"
         d="M 500,779.13 C 345.76,779.94 220.06,655.56 219.25,501.32 218.44,347.08 342.82,221.38 497.06,220.56 h 3 c 154.24,0.5 278.87,126 278.37,280.19 C 778,654.32 653.56,778.67 500,779.13 M 500,173 C 319.49,173 173.16,319.33 173.16,499.84 v 0 c -0.17,180.5 146,327 326.53,327.14 180.53,0.14 327,-146 327.15,-326.53 v -0.61 C 826.84,319.34 680.51,173 500,173 v 0"
         id="path14812"
         style="fill:#283474;fill-opacity:1" /></g></g></svg>
