<?xml version="1.0" encoding="UTF-8" standalone="no"?>
<!-- Created with Inkscape (http://www.inkscape.org/) -->

<svg
   width="24"
   height="24"
   viewBox="0 0 6.3500001 6.35"
   version="1.1"
   id="svg5"
   xml:space="preserve"
   inkscape:version="1.2.2 (b0a84865, 2022-12-01)"
   sodipodi:docname="astrid_logo.svg"
   xmlns:inkscape="http://www.inkscape.org/namespaces/inkscape"
   xmlns:sodipodi="http://sodipodi.sourceforge.net/DTD/sodipodi-0.dtd"
   xmlns="http://www.w3.org/2000/svg"
   xmlns:svg="http://www.w3.org/2000/svg"><sodipodi:namedview
     id="namedview7"
     pagecolor="#ffffff"
     bordercolor="#000000"
     borderopacity="0.25"
     inkscape:showpageshadow="2"
     inkscape:pageopacity="0.0"
     inkscape:pagecheckerboard="0"
     inkscape:deskcolor="#d1d1d1"
     inkscape:document-units="mm"
     showgrid="false"
     inkscape:zoom="15.934189"
     inkscape:cx="2.1651557"
     inkscape:cy="11.296465"
     inkscape:window-width="3202"
     inkscape:window-height="1196"
     inkscape:window-x="0"
     inkscape:window-y="25"
     inkscape:window-maximized="0"
     inkscape:current-layer="layer1" /><defs
     id="defs2" /><g
     inkscape:label="Layer 1"
     inkscape:groupmode="layer"
     id="layer1"><path
       style="fill:#333;stroke-width:0.0260463"
       d="m 2.1414848,6.1520071 0.0083,-0.1013845 0.1041857,-0.013025 0.1041846,-0.013025 0.1437081,-0.4297638 0.143708,-0.4297637 0.2050384,-0.6328579 0.2050386,-0.6328568 0.1303837,0.00769 0.1303839,0.00769 0.3322342,1.0230485 0.3322342,1.0230486 0.031818,0.038339 0.031818,0.038339 h 0.089545 0.089545 l -0.00808,0.097678 -0.00808,0.097679 -0.091162,0.00867 -0.091162,0.00867 L 3.9302944,6.2217962 3.8354702,6.1934051 3.7688421,6.0308084 3.7022139,5.8682106 3.5169178,5.3603084 3.3316213,4.8524051 3.2658644,4.6765935 3.2001075,4.5007809 l -0.017258,7.8e-5 -0.017258,7.8e-5 L 3.0500108,4.8199352 2.9344302,5.1389334 2.746543,5.643329 2.5586556,6.1477257 l -0.038837,0.038837 -0.038838,0.038837 -0.1739017,0.013957 -0.1739016,0.013957 0.0083,-0.1013845 z M 4.6173786,6.0051458 4.5590717,5.9430754 V 5.9241661 5.9052567 L 4.6135556,5.831559 4.6680395,5.7578612 4.3357032,5.1228491 4.0033669,4.4878358 3.8162755,4.1362105 3.6291837,3.7845863 l 0.082065,-0.08552 0.082066,-0.08552 0.1419507,0.062959 0.1419508,0.062959 0.4558099,0.22867 0.45581,0.2286689 0.4086699,0.2041182 0.4086696,0.2041182 h 0.030097 0.030096 l 0.077048,-0.054864 0.077047,-0.054864 0.050693,0.045881 0.050692,0.045881 v 0.032 0.032 L 6.0175889,4.745261 5.9133284,4.8394503 5.8547993,4.8389388 5.7962702,4.8384273 5.5358073,4.7257232 5.2753445,4.6130201 4.7934882,4.3968238 4.3116319,4.1806275 l -0.05777,-0.037689 -0.057769,-0.037689 -0.02575,0.00899 -0.02575,0.00899 0.2090195,0.4427868 0.2090193,0.4427868 0.1675217,0.3402602 0.1675216,0.3402613 v 0.071487 0.071487 L 4.7866808,5.949782 4.6756874,6.0672563 4.6173794,6.0051968 Z M 1.5837373,5.951972 1.4865183,5.8682941 1.4708067,5.7887555 1.4550952,5.709217 1.5593253,5.5022489 1.6635554,5.2952808 1.9236576,4.744302 2.1837597,4.1933222 2.2008496,4.1394766 2.2179396,4.085631 2.0145639,4.1872972 1.811188,4.2889743 1.6028177,4.3786015 1.3944475,4.4682286 1.0068608,4.6421568 0.61927368,4.8160839 0.54982051,4.8299761 0.48036734,4.8438682 0.34643726,4.7309712 0.21250728,4.6180753 l 0.0550495,-0.058603 0.0550496,-0.058603 h 0.0304923 0.0304923 l 0.0471434,0.05209 0.0471434,0.05209 h 0.0335481 0.0335481 L 1.5349829,4.1101709 2.5249921,3.6152917 h 0.022407 0.022407 l 0.069989,0.073048 0.069989,0.073048 v 0.026332 0.026332 L 2.5506952,4.1248942 2.3916065,4.4357359 2.3536979,4.4959425 2.3157892,4.556149 2.0179071,5.1291363 1.7200253,5.7021246 v 0.039986 0.039986 l 0.054863,0.077046 0.054863,0.077046 -0.045877,0.050692 -0.045877,0.050692 -0.028521,-9.753e-4 -0.028521,-9.742e-4 -0.097219,-0.083667 z M 0.03597218,4.1480351 0.02051527,4.1077565 0.0339187,3.988841 0.04732213,3.8699244 0.09766546,3.8195789 0.1480088,3.7692334 0.75820483,3.5531596 1.3684004,3.3370846 l 0.229284,-0.085249 0.2292839,-0.085249 -0.00828,-0.00824 -0.00828,-0.00824 L 1.0294096,2.8777182 0.2484083,2.6053215 0.18222228,2.5791193 0.11603626,2.5529171 0.08216737,2.5121076 0.04829848,2.471298 0.03403898,2.3140469 0.01977948,2.1567958 H 0.12601 0.23224053 l 0.008084,0.096627 0.008084,0.096638 0.32977094,0.1109086 0.32977127,0.1109085 0.75114966,0.2323013 0.7511499,0.2323012 0.00796,0.1208736 0.00796,0.1208737 -0.086108,0.035814 -0.086106,0.035814 -0.9506894,0.2915303 -0.95068951,0.2915293 -0.0586039,0.03719 -0.0586039,0.03719 v 0.090559 0.090559 H 0.14339925 0.05141956 Z M 6.1478948,4.1151577 V 4.0420018 L 6.1153371,3.9998919 6.0827794,3.957782 5.5618538,3.7972648 5.0409281,3.6367465 4.5330254,3.4799971 4.0251229,3.3232466 3.9795421,3.29906 3.9339613,3.2748733 V 3.1725244 3.0701754 l 0.046802,-0.025054 0.046802,-0.025054 0.7642541,-0.237727 0.7642542,-0.2377269 0.2633527,-0.090234 0.2633527,-0.090234 0.032558,-0.043573 0.032558,-0.043573 v -0.060142 -0.060141 h 0.091162 0.091162 v 0.128536 0.1285359 l -0.024465,0.064346 -0.024465,0.064346 -0.1383243,0.051602 -0.138324,0.051602 -0.7234896,0.2540248 -0.7234898,0.2540248 0.015357,0.015355 0.015357,0.015355 0.2002303,0.073319 0.2002301,0.073319 0.5744692,0.2039317 0.5744691,0.2039329 0.080043,0.041395 0.080044,0.041395 0.01618,0.042164 0.01618,0.042164 V 4.0471902 4.1883137 H 6.2390576 6.147896 Z M 3.7263164,2.639314 3.6438845,2.5542598 3.6808559,2.4661822 3.7178261,2.3781047 3.8939928,2.0525266 4.0701597,1.7269475 4.207471,1.4664849 4.3447823,1.2060222 4.5040194,0.89542861 4.6632565,0.58483502 v -0.0194945 -0.0194945 l -0.064276,-0.0763852 -0.064275,-0.0763852 0.064275,-0.0603799 0.064276,-0.0603799 0.071627,0.0621788 0.071627,0.0621788 0.045581,0.0494352 0.045581,0.0494353 v 0.0778264 0.0778264 L 4.7844132,0.87652683 4.6711549,1.1018571 4.4167621,1.6436564 4.1623696,2.1854546 4.1741032,2.1971903 4.1858367,2.208926 4.7045431,1.9779793 5.2232494,1.7470326 5.4767577,1.6247394 5.7302657,1.5024473 5.8200867,1.4878723 5.9099077,1.4732973 6.0349299,1.5914218 6.159952,1.7095463 6.110816,1.7638363 6.06168,1.8181263 H 6.0168132 5.9719465 L 5.9395221,1.7790507 5.9070977,1.7399858 H 5.8489598 5.7908219 L 4.973087,2.1501 4.1553525,2.5602143 3.9820496,2.6422994 3.8087468,2.7243844 Z M 1.5377021,2.2202467 0.58701268,1.7424359 l -0.0634368,-0.00119 -0.0634368,-0.00119 -0.0556054,0.052242 -0.0556054,0.052242 -0.0604005,-0.064292 -0.0604005,-0.064292 0.0441146,-0.067326 0.0441146,-0.067326 0.0832348,-0.051863 0.0832348,-0.051863 0.0753026,0.01412 0.0753026,0.01412 0.25027591,0.1199076 0.25027651,0.1199114 0.5185962,0.2316294 0.5185959,0.2316294 h 0.019382 0.019382 L 1.982343,1.7204284 1.7547461,1.2320608 1.6071548,0.9307409 1.4595633,0.62942102 l 8.269e-4,-0.0633274 8.269e-4,-0.0633274 0.032673,-0.0390757 0.032673,-0.0390649 0.083258,-0.0760709 0.083259,-0.0760709 0.052541,0.0475497 0.052542,0.0475497 v 0.0448623 0.0448623 l -0.039069,0.0324222 -0.039069,0.0324223 v 0.052892 0.052892 l 0.1795842,0.34112924 0.179584,0.34113034 0.1234219,0.2474396 0.1234216,0.2474406 0.032022,0.039065 0.032022,0.039065 0.1731894,0.3368478 0.1731892,0.3368478 -0.070304,0.073383 -0.070304,0.073383 -0.053731,-0.00282 -0.053731,-0.00282 z M 3.0232357,2.35441 2.9993741,2.2916461 2.6834823,1.3256432 2.367591,0.35964022 2.3284578,0.3205103 2.2893247,0.28138038 h -0.090953 -0.090951 l 0.00816,-0.0846533 0.00816,-0.0846533 0.158506,-0.007694 0.1585062,-0.0076938 0.053664,0.04671534 0.053663,0.0467153 0.092718,0.24743958 0.092718,0.24743957 0.1841613,0.50790218 0.1841613,0.5079023 0.026612,0.062569 0.026612,0.062569 0.022382,-0.023493 0.022384,-0.023493 L 3.3867713,1.2710487 3.573715,0.76314651 3.6636011,0.5191323 3.7534872,0.27511808 3.7906666,0.20321916 3.827846,0.13132023 3.870009,0.11514162 3.912172,0.09896301 H 4.06797 4.2237676 L 4.2156076,0.18331285 4.2074476,0.2676627 4.1094866,0.2834404 4.0115256,0.2992181 3.9968626,0.3138796 3.9821996,0.3285411 3.806313,0.85839227 3.6304255,1.3882434 3.4650061,1.9026572 3.2995869,2.4170721 H 3.1733431 3.0470994 Z"
       id="path860" /></g></svg>
