<?xml version="1.0" encoding="UTF-8" standalone="no"?>
<!-- Created with Inkscape (http://www.inkscape.org/) -->

<svg
   width="122.93376mm"
   height="231.68904mm"
   viewBox="0 0 122.93376 231.68904"
   version="1.1"
   id="svg7903"
   xml:space="preserve"
   inkscape:version="1.2.2 (b0a84865, 2022-12-01)"
   sodipodi:docname="icon.svg"
   xmlns:inkscape="http://www.inkscape.org/namespaces/inkscape"
   xmlns:sodipodi="http://sodipodi.sourceforge.net/DTD/sodipodi-0.dtd"
   xmlns="http://www.w3.org/2000/svg"
   xmlns:svg="http://www.w3.org/2000/svg"><sodipodi:namedview
     id="namedview7905"
     pagecolor="#ffffff"
     bordercolor="#000000"
     borderopacity="0.25"
     inkscape:showpageshadow="2"
     inkscape:pageopacity="0.0"
     inkscape:pagecheckerboard="0"
     inkscape:deskcolor="#d1d1d1"
     inkscape:document-units="mm"
     showgrid="false"
     inkscape:zoom="0.36456107"
     inkscape:cx="-102.86342"
     inkscape:cy="486.88688"
     inkscape:window-width="1538"
     inkscape:window-height="789"
     inkscape:window-x="0"
     inkscape:window-y="25"
     inkscape:window-maximized="0"
     inkscape:current-layer="layer1" /><defs
     id="defs7900"><mask
       maskUnits="userSpaceOnUse"
       id="mask7885"><rect
         style="fill:#1a1a1a;stroke:#ffffff;stroke-width:0.264583;stroke-linecap:round;stroke-linejoin:round;stroke-miterlimit:20;stroke-dasharray:none;stroke-opacity:1;paint-order:stroke fill markers"
         id="rect7887"
         width="20.988895"
         height="32.260708"
         x="18.939402"
         y="92.875656" /></mask><clipPath
       clipPathUnits="userSpaceOnUse"
       id="clipPath8066"><rect
         style="fill:#1a1a1a;stroke:#ffffff;stroke-width:0.264583;stroke-linecap:round;stroke-linejoin:round;stroke-miterlimit:20;paint-order:stroke fill markers"
         id="rect8068"
         width="20.602016"
         height="31.890797"
         x="165.6628"
         y="163.68726" /></clipPath></defs><g
     inkscape:label="Layer 1"
     inkscape:groupmode="layer"
     id="layer1"
     transform="translate(-58.878232,-39.018712)"><path
       style="fill:none;stroke:#040404;stroke-width:7;stroke-linecap:round;stroke-linejoin:round;stroke-dasharray:none"
       d="m 127.6143,98.080475 v -1.07024 -2.89851 -6.61458 -25.13542 c 0,-3.96902 -0.18653,-8.54983 0.25136,-12.43542 0.11747,-1.04378 0.18388,-1.65275 0.51329,-2.64583 0.70009,-2.111775 2.69399,-3.967853 4.7916,-4.517922 0.80063,-0.209947 1.49622,-0.249608 2.38125,-0.243364 0.91229,0.0065 1.56528,0.07247 2.38125,0.274796 0.96706,0.239872 1.86426,0.665269 2.62123,1.255554 0.89297,0.696489 1.48246,1.634706 1.88886,2.701766 0.34899,0.91673 0.42836,1.69704 0.58208,2.64583 0.33126,2.04253 0.46408,4.51284 0.46408,6.61459 v 30.42708 7.67292 c 0,1.12051 0.0124,1.38642 -10e-4,2.11667 -0.007,0.37756 0.0545,0.79613 -0.15822,1.28375 -0.51488,1.17925 -2.50746,0.83291 -5.13212,0.83291 h -6.08542 c -2.52254,0 -3.6539,-0.01 -6.61458,-2.6e-4 -1.34197,0.005 -1.89786,2.6e-4 -3.43959,2.6e-4 -1.92193,0 -3.0689,-0.0664 -5.29166,-0.0368 -1.83436,0.0243 -2.63525,0.0368 -4.23334,0.0368 h -6.08541 c -1.82166,0 -2.95619,-0.04 -5.02709,-0.04 -2.025382,0 -3.010692,0.04 -4.762502,0.04 -2.0439,0 -3.61288,-0.04 -5.82083,-0.04 -2.0709,0 -3.20543,0.04 -5.02709,0.04 h -6.08541 c -1.53697,0 -2.48312,-0.10107 -4.23334,-0.0437 -2.19233,0.0717 -5.49327,1.03134 -7.40833,2.371985 -2.04893,1.4343 -3.51922,3.60018 -4.34075,5.87375 -0.50668,1.40229 -0.56383,2.41458 -0.73025,3.96875 -0.80645,7.53295 -0.22067,15.43552 -0.22067,23.01875 v 73.81875 c 0,8.70664 -0.9943,18.0967 0.1524,26.72291 0.2929,2.20398 0.39132,3.70444 1.29329,5.82084 1.62957,3.82455 5.452,6.11902 9.13765,6.64898 1.07712,0.15478 3.28268,0.15901 3.96875,0.50218 l 64.029172,-0.11245 c 0.63632,-0.23442 2.10449,-0.16219 2.91041,-0.27199 1.973,-0.26882 2.78104,-0.26353 4.7625,-1.34753 2.61144,-1.42822 4.86834,-3.97324 5.76342,-6.74211 0.45006,-1.39224 0.59214,-2.4339 0.7755,-3.96875 0.63447,-5.30384 0.34025,-10.79817 0.34025,-16.13958 v -27.25209 -25.92916 c 0,-4.98793 -0.10472,-8.60358 -0.26458,-15.08125 M 75.226798,98.080475 v -1.32953 -3.16839 c 0,-2.01877 -0.0651,-3.58246 0.0238,-4.7625 0.0339,-0.44952 0.0513,-1.35546 0.65458,-1.98067 1.06363,-1.10252 2.67123,-0.66516 4.08411,-0.66516 h 6.61458 c 1.02341,0 2.01428,-0.28178 3.13981,0.34872 0.95859,0.53684 1.05172,1.68275 1.08294,2.29711 0.0606,1.19645 0.0106,2.8493 0.0106,4.49792 v 3.43297 1.32953 m 10.583342,0 v -1.32953 -3.16839 c 0,-1.35625 -0.0352,-3.50255 0.0103,-4.49791 0.0299,-0.64982 -2.7e-4,-1.75446 0.8636,-2.41883 1.20464,-0.92657 2.64662,-0.49159 4.15316,-0.49159 h 6.35 c 1.0234,0 2.01427,-0.28178 3.13981,0.34872 0.95858,0.53684 1.05172,1.68275 1.08294,2.29711 0.0606,1.19645 0.0106,2.8493 0.0106,4.49792 v 3.43297 1.32953 m 26.45833,0 c 1.11364,0.60351 2.43973,0.48763 4.49792,1.40547 3.08187,1.374505 5.50624,3.585355 6.70481,6.796605 0.53763,1.44039 0.71093,2.71569 0.89244,4.23334 0.85248,7.12655 0.13493,14.54546 0.0757,21.69583 m -69.320882,16.40417 c -2.60935,0.0351 -3.81106,0.0429 -5.02708,-0.0103 -0.94007,-0.0413 -2.40718,0.11456 -3.29036,-0.86757 -1.09088,-1.21338 -0.67839,-2.59107 -0.67839,-4.1492 v -15.08125 c 0,-3.12843 -2.7e-4,-7.59751 0,-10.58333 0,-1.36472 -0.49874,-3.48668 1.33826,-4.22487 0.70961,-0.28495 1.34144,-0.26802 2.3659,-0.27278 1.10411,-0.005 2.79295,-2.7e-4 3.96875,-2.7e-4 h 8.73125 35.983342 c 2.16376,0 5.66314,-0.01 7.67292,2.7e-4 1.1049,0.005 2.35929,-0.25294 3.21257,0.68474 0.91863,1.00938 0.74162,2.66753 0.75512,3.81291 0.027,2.25848 0.001,5.57503 0.001,7.9375 0,5.71526 0.002,11.48847 0,17.19792 -5.3e-4,1.65179 0.11033,4.18914 -1.13216,4.97998 -1.19988,0.76359 -2.27012,0.56833 -3.89493,0.576 -4.37171,0.0212 -9.57394,2.7e-4 -14.02291,2.7e-4 h -21.69584 m 33.3375,12.39731 c 0.88239,0 1.54967,0.10689 2.38125,0.31406 1.77615,0.44292 3.44541,1.89654 4.08808,3.69279 0.35534,0.99272 0.50694,1.86267 0.48551,2.91042 -0.018,0.86916 -0.13891,1.55522 -0.39873,2.38125 -0.5027,1.59835 -1.96479,3.39064 -3.64569,3.93356 -0.97287,0.31406 -1.88833,0.47466 -2.91042,0.47466 -0.84058,0 -1.58326,-0.14261 -2.38125,-0.36142 -1.5359,-0.42121 -3.22421,-1.92855 -3.7203,-3.51763 -0.33788,-1.08241 -0.50536,-2.0828 -0.50536,-3.175 0,-0.91864 0.11272,-1.54676 0.32041,-2.38125 0.25321,-1.01627 0.75221,-1.87669 1.53565,-2.61144 0.68791,-0.64532 1.45441,-1.07712 2.3696,-1.33244 0.90858,-0.25321 1.49728,-0.32756 2.38125,-0.32756 m -26.19375,0.15531 c 0.59135,-0.0995 1.14115,-0.12726 1.85209,-0.11324 1.11865,0.0222 1.68963,0.0426 2.91041,0.51329 1.65206,0.63712 2.9345,2.07989 3.41181,3.71608 0.25849,0.88609 0.38761,1.6764 0.36777,2.64583 -0.0175,0.86916 -0.13203,1.54808 -0.35455,2.38125 -0.77655,2.90777 -3.54991,4.19497 -6.07086,4.41087 -1.10278,0.0947 -2.37913,-0.16166 -3.43958,-0.5543 -1.62296,-0.60114 -2.94693,-2.2606 -3.32608,-3.85657 -0.18865,-0.79322 -0.33867,-1.51051 -0.36671,-2.38125 -0.0982,-3.04906 1.71423,-6.20686 5.0157,-6.76196 m -29.633332,33.74946 h 6.08541 m 11.64167,0 H 140.8434 m -61.647922,12.7 h 52.643952 m -54.496032,12.7 h 36.061872"
       id="path8098"
       sodipodi:nodetypes="ccccsccssccccscsscsscscssssssscsscsscccccscscscscccsscssccsccccsccssccsccccscccccsscccscscccssccscccccscsssscccccccscscccsccccccccc" /><path
       style="fill:#ffffff;fill-opacity:1;stroke:#040404;stroke-width:7;stroke-dasharray:none;stroke-opacity:1"
       d="m 136.25899,267.20746 -5.89821,-1.3e-4 -0.64427,-0.3189 -0.64426,-0.3189 -0.33554,-0.54292 -0.33554,-0.5429 -0.42808,-3.52153 -0.42807,-3.52153 -0.0842,-0.62217 -0.0842,-0.62217 -1.67944,-0.55584 -1.67944,-0.55584 -1.91585,-0.91646 -1.91584,-0.91645 -0.17284,0.10547 -0.17283,0.10548 -2.8969,2.29114 -2.8969,2.29113 -0.52776,0.26961 -0.52776,0.26961 h -0.49147 -0.49148 l -0.42921,-0.16152 -0.42922,-0.16153 -4.3235,-4.29817 -4.3235,-4.29818 -0.21243,-0.49062 -0.21243,-0.49063 v -0.5063 -0.50629 l 0.27177,-0.52776 0.27176,-0.52777 2.2886,-2.89689 2.28859,-2.8969 0.10586,-0.17283 0.10586,-0.17284 -0.90187,-1.88548 -0.90187,-1.88549 -0.58001,-1.70495 -0.58001,-1.70494 -0.46012,-0.0809 -0.46012,-0.0809 -3.50677,-0.39706 -3.506772,-0.39706 -0.67579,-0.33654 -0.6758,-0.33653 -0.35336,-0.66823 -0.35337,-0.66823 v -6.05077 -6.05077 l 0.35337,-0.66824 0.35336,-0.66823 0.6758,-0.33653 0.67579,-0.33654 3.506772,-0.39706 3.50677,-0.39706 0.4617,-0.0812 0.4617,-0.0812 0.59048,-1.74883 0.59048,-1.74883 0.89135,-1.83882 0.89136,-1.83882 -0.10739,-0.17532 -0.1074,-0.17532 -2.28859,-2.8969 -2.2886,-2.89689 -0.27176,-0.52777 -0.27177,-0.52775 v -0.49148 -0.49148 l 0.15964,-0.42921 0.15964,-0.42922 4.30006,-4.32253 4.30006,-4.32254 0.49062,-0.21339 0.49062,-0.2134 h 0.4672 0.46721 l 0.49062,0.20579 0.49062,0.2058 2.97314,2.35525 2.97313,2.35526 0.17283,0.10517 0.17284,0.10518 1.91584,-0.91646 1.91585,-0.91646 1.67235,-0.55349 1.67234,-0.5535 0.0813,-0.47204 0.0813,-0.47205 0.39909,-3.50677 0.39908,-3.50677 0.33636,-0.67579 0.33636,-0.6758 0.66823,-0.35337 0.66823,-0.35337 h 6.05077 6.05077 l 0.66824,0.35337 0.66823,0.35337 0.33636,0.6758 0.33635,0.67579 0.39909,3.50677 0.39909,3.50677 0.0794,0.46169 0.0794,0.4617 1.74883,0.59048 1.74883,0.59048 1.83882,0.89136 1.83882,0.89136 0.17532,-0.1074 0.17532,-0.10739 2.8969,-2.28859 2.89689,-2.28861 0.52777,-0.27176 0.52775,-0.27177 h 0.5063 0.5063 l 0.49063,0.2134 0.49062,0.21339 4.30006,4.32254 4.30005,4.32253 0.15965,0.42922 0.15963,0.42921 v 0.49148 0.49148 l -0.27176,0.52775 -0.27177,0.52777 -2.2886,2.89689 -2.28859,2.8969 -0.10739,0.17532 -0.1074,0.17532 0.89136,1.83882 0.89136,1.83882 0.59273,1.75552 0.59274,1.75552 0.61191,0.0826 0.6119,0.0826 3.52153,0.42808 3.52153,0.42808 0.54619,0.33755 0.54618,0.33757 0.31575,0.65226 0.31575,0.65226 v 6.02661 6.02662 l -0.35336,0.66823 -0.35337,0.66823 -0.6758,0.33588 -0.67579,0.33588 -3.94292,0.45976 -3.94291,0.45977 -0.0345,0.0467 -0.0345,0.0467 -0.57106,1.67715 -0.57105,1.67716 -0.90031,1.88549 -0.9003,1.88549 0.10548,0.17283 0.10547,0.17283 2.29114,2.8969 2.29113,2.89689 0.26962,0.52777 0.2696,0.52776 v 0.51648 0.51647 l -0.23265,0.49028 -0.23264,0.49027 -4.37953,4.35996 -4.37951,4.35995 -0.7128,0.10551 -0.71278,0.10552 -0.50696,-0.17015 -0.50695,-0.17013 -3.18895,-2.51366 -3.18895,-2.51365 h -0.0331 -0.0331 l -1.88565,0.9059 -1.88564,0.90591 -1.67715,0.56743 -1.67716,0.56742 -0.0456,0.0334 -0.0456,0.0334 -0.5907,4.12272 -0.59071,4.12272 -0.15106,0.27871 -0.15108,0.27871 -0.43241,0.40958 -0.43241,0.40959 -0.42921,0.16217 -0.42922,0.16217 z m 0.35299,-24.64727 0.4574,-0.034 1.14351,-0.0817 1.14351,-0.0817 1.29598,-0.32778 1.29599,-0.32778 1.3206,-0.56776 1.32059,-0.56775 1.27136,-0.84637 1.27137,-0.84636 1.02532,-0.94005 1.02532,-0.94006 0.91006,-1.20774 0.91007,-1.20774 0.53256,-0.95495 0.53258,-0.95494 0.47025,-1.21975 0.47026,-1.21974 0.30963,-1.5111 0.30963,-1.51109 -0.002,-1.91945 -0.002,-1.91944 -0.24242,-1.26758 -0.24241,-1.26758 -0.46678,-1.32438 -0.46678,-1.32438 -0.30696,-0.60987 -0.30696,-0.60988 -0.83278,-1.28355 -0.83278,-1.28354 -1.32078,-1.30949 -1.32077,-1.30948 -1.18511,-0.81092 -1.1851,-0.8109 -1.10192,-0.50747 -1.10192,-0.50747 -0.97671,-0.31912 -0.97671,-0.31913 -1.29745,-0.24312 -1.29746,-0.24312 -1.84248,0.003 -1.84248,0.003 -1.54785,0.31584 -1.54786,0.31584 -1.44997,0.58349 -1.44995,0.58351 -1.3319,0.82699 -1.33189,0.82699 -1.48204,1.44845 -1.48204,1.44845 -0.8682,1.33387 -0.8682,1.33387 -0.43198,0.95316 -0.43197,0.95315 -0.32045,0.97671 -0.32045,0.9767 -0.24407,1.30256 -0.24408,1.30255 0.012,1.91362 0.012,1.91361 0.2893,1.37222 0.2893,1.37222 0.53054,1.4091 0.53053,1.4091 0.73063,1.2086 0.73062,1.2086 0.93236,1.11236 0.93234,1.11236 1.065,0.89478 1.06501,0.89477 1.09229,0.68105 1.09228,0.68105 1.43411,0.58575 1.43412,0.58576 1.20715,0.26856 1.20714,0.26857 1.22168,0.0961 1.22168,0.0961 0.4574,-0.034 z"
       id="path10749" /></g></svg>
